<svg xmlns="http://www.w3.org/2000/svg" xmlns:xlink="http://www.w3.org/1999/xlink" id="body_1" preserveAspectRatio="xMinYMin meet" viewBox="0 0 793 1123"><defs><clipPath id="1"><path id="" clip-rule="evenodd" transform="matrix(1 0 0 1 0 0)" d="M0 842L0 0L0 0L595.22 0L595.22 0L595.22 842L595.22 842L0 842z" /></clipPath><clipPath id="2"><path id="" clip-rule="evenodd" transform="matrix(1 0 0 1 0 0)" d="M0 0.02001953L595.02 0.02001953L595.02 0.02001953L595.02 841.86L595.02 841.86L0 841.86z" /></clipPath></defs><g transform="matrix(1.333333 0 0 1.333333 0 0)"><g clip-path="url(#1)"><g clip-path="url(#2)"><g><g transform="matrix(10.4958 0 0 10.5 180 159.1836)"><path id="1" transform="matrix(1 0 0 1 0 0)" d="M4.73541 10.11656C 4.73541 10.17806 4.731139 10.23272 4.722598 10.28055C 4.714056 10.32839 4.702098 10.36853 4.686723 10.40099C 4.671349 10.43345 4.650849 10.45736 4.625224 10.47274C 4.5996 10.48811 4.571413 10.4958 4.540663 10.4958L0.8763583 10.4958C 0.8285258 10.4958 0.7866725 10.48982 0.7507982 10.47786C 0.7149239 10.46591 0.6841745 10.44626 0.65855 10.41893C 0.6329255 10.39159 0.6141341 10.3523 0.602176 10.30105C 0.5902179 10.2498 0.5842388 10.1866 0.5842388 10.11143C 0.5842388 10.0431 0.5868013 9.98331 0.5919262 9.932061C 0.5970511 9.880812 0.6081551 9.835542 0.6252381 9.796251C 0.6423211 9.75696 0.6636748 9.717669 0.6892993 9.678378C 0.7149239 9.639088 0.7482357 9.597234 0.7892349 9.552818L2.075585 8.189594C 2.37283 7.875267 2.611138 7.593397 2.790509 7.343985C 2.969881 7.094573 3.108253 6.867369 3.205626 6.662373C 3.302999 6.457377 3.367061 6.271173 3.39781 6.103759C 3.42856 5.936345 3.443934 5.779182 3.443934 5.632268C 3.443934 5.485354 3.420018 5.346128 3.372186 5.214588C 3.324353 5.083049 3.255167 4.967739 3.164627 4.868658C 3.074087 4.769576 2.960485 4.690994 2.823821 4.632912C 2.687157 4.57483 2.529993 4.545788 2.35233 4.545788C 2.143918 4.545788 1.956859 4.57483 1.791153 4.632912C 1.625448 4.690994 1.480243 4.754201 1.355537 4.822533C 1.230831 4.890865 1.126624 4.954072 1.042918 5.012155C 0.9592109 5.070237 0.8968579 5.099278 0.8558587 5.099278C 0.8319425 5.099278 0.8105887 5.092445 0.7917974 5.078778C 0.7730061 5.065112 0.7576314 5.042904 0.7456733 5.012155C 0.7337152 4.981405 0.7243195 4.940406 0.7174863 4.889157C 0.7106531 4.837908 0.7072365 4.776409 0.7072365 4.70466C 0.7072365 4.653411 0.7089449 4.608995 0.7123614 4.571413C 0.715778 4.533831 0.7217571 4.501372 0.7302986 4.47404C 0.73884 4.446707 0.749944 4.421082 0.7636104 4.397166C 0.7772768 4.37325 0.8046097 4.343355 0.8456089 4.30748C 0.8866081 4.271606 0.9575026 4.222919 1.058292 4.161421C 1.159082 4.099922 1.285496 4.039278 1.437535 3.979487C 1.589574 3.919696 1.756987 3.869301 1.939775 3.828302C 2.122564 3.787303 2.314747 3.766803 2.516327 3.766803C 2.837487 3.766803 3.118503 3.812073 3.359373 3.902613C 3.600244 3.993154 3.800115 4.117005 3.958987 4.274168C 4.117859 4.431333 4.236586 4.61412 4.315168 4.822533C 4.393749 5.030946 4.433041 5.253025 4.433041 5.48877C 4.433041 5.7006 4.414249 5.911575 4.376667 6.121696C 4.339084 6.331817 4.259648 6.559021 4.138359 6.803308C 4.017069 7.047595 3.841968 7.319215 3.613056 7.618167C 3.384144 7.91712 3.080066 8.261343 2.700824 8.650835L1.650218 9.747564L4.535539 9.747564C 4.562871 9.747564 4.58935 9.755252 4.614974 9.770626C 4.640599 9.786001 4.662807 9.809063 4.681598 9.839812C 4.70039 9.870562 4.714056 9.908998 4.722598 9.955123C 4.731139 10.00125 4.73541 10.05506 4.73541 10.11656zM4.73541 10.11656z" stroke="none" fill="#000000" fill-rule="evenodd" /></g><g transform="matrix(10.4958 0 0 10.5 185.3413 159.1836)"><path id="2" transform="matrix(1 0 0 1 0 0)" d="M4.955781 7.164614C 4.955781 7.673687 4.915636 8.138345 4.835345 8.558587C 4.755055 8.978828 4.621808 9.340135 4.435603 9.642504C 4.249398 9.944873 4.005965 10.17891 3.705304 10.34461C 3.404644 10.51032 3.033942 10.59317 2.5932 10.59317C 2.176375 10.59317 1.825319 10.51886 1.540033 10.37024C 1.254747 10.22162 1.02498 10.00296 0.8507338 9.714252C 0.6764871 9.42555 0.5526353 9.070223 0.4791784 8.648273C 0.4057214 8.226322 0.368993 7.742019 0.368993 7.195363C 0.368993 6.689706 0.4099922 6.225902 0.4919906 5.803952C 0.573989 5.382002 0.7072365 5.019842 0.891733 4.717473C 1.076229 4.415103 1.318808 4.181066 1.619469 4.015361C 1.92013 3.849656 2.289123 3.766803 2.726448 3.766803C 3.14669 3.766803 3.499454 3.841115 3.78474 3.989737C 4.070026 4.138359 4.299793 4.357021 4.47404 4.645724C 4.648286 4.934427 4.772138 5.289753 4.845595 5.711704C 4.919052 6.133654 4.955781 6.617957 4.955781 7.164614zM4.053798 7.226112C 4.053798 6.894702 4.04184 6.597458 4.017923 6.334379C 3.994007 6.071301 3.958987 5.838972 3.912863 5.637393C 3.866739 5.435813 3.806948 5.262421 3.733491 5.117215C 3.660034 4.97201 3.572057 4.852428 3.469559 4.758472C 3.367061 4.664515 3.250042 4.596183 3.118503 4.553476C 2.986964 4.510768 2.839196 4.489415 2.675199 4.489415C 2.384788 4.489415 2.149042 4.557746 1.967963 4.694411C 1.786883 4.831075 1.644239 5.018988 1.540033 5.25815C 1.435827 5.497312 1.364932 5.777473 1.32735 6.098634C 1.289767 6.419795 1.270976 6.764871 1.270976 7.133864C 1.270976 7.629272 1.2966 8.050367 1.347849 8.397153C 1.399098 8.743937 1.480243 9.026661 1.591282 9.245324C 1.702322 9.463986 1.844111 9.622858 2.016649 9.72194C 2.189187 9.821021 2.398454 9.870562 2.644449 9.870562C 2.835779 9.870562 3.004047 9.839812 3.149252 9.778314C 3.294458 9.716815 3.419164 9.628838 3.52337 9.514381C 3.627577 9.399925 3.713846 9.262407 3.782178 9.101827C 3.85051 8.941246 3.905175 8.763583 3.946175 8.568837C 3.987174 8.37409 4.015361 8.163116 4.030735 7.935911C 4.04611 7.708707 4.053798 7.472108 4.053798 7.226112zM4.053798 7.226112z" stroke="none" fill="#000000" fill-rule="evenodd" /></g><g transform="matrix(10.4958 0 0 10.5 190.6826 159.1836)"><path id="3" transform="matrix(1 0 0 1 0 0)" d="M4.73541 10.11656C 4.73541 10.17806 4.731139 10.23272 4.722598 10.28055C 4.714056 10.32839 4.702098 10.36853 4.686723 10.40099C 4.671349 10.43345 4.650849 10.45736 4.625224 10.47274C 4.5996 10.48811 4.571413 10.4958 4.540663 10.4958L0.8763583 10.4958C 0.8285258 10.4958 0.7866725 10.48982 0.7507982 10.47786C 0.7149239 10.46591 0.6841745 10.44626 0.65855 10.41893C 0.6329255 10.39159 0.6141341 10.3523 0.602176 10.30105C 0.5902179 10.2498 0.5842388 10.1866 0.5842388 10.11143C 0.5842388 10.0431 0.5868013 9.98331 0.5919262 9.932061C 0.5970511 9.880812 0.6081551 9.835542 0.6252381 9.796251C 0.6423211 9.75696 0.6636748 9.717669 0.6892993 9.678378C 0.7149239 9.639088 0.7482357 9.597234 0.7892349 9.552818L2.075585 8.189594C 2.37283 7.875267 2.611138 7.593397 2.790509 7.343985C 2.969881 7.094573 3.108253 6.867369 3.205626 6.662373C 3.302999 6.457377 3.367061 6.271173 3.39781 6.103759C 3.42856 5.936345 3.443934 5.779182 3.443934 5.632268C 3.443934 5.485354 3.420018 5.346128 3.372186 5.214588C 3.324353 5.083049 3.255167 4.967739 3.164627 4.868658C 3.074087 4.769576 2.960485 4.690994 2.823821 4.632912C 2.687157 4.57483 2.529993 4.545788 2.35233 4.545788C 2.143918 4.545788 1.956859 4.57483 1.791153 4.632912C 1.625448 4.690994 1.480243 4.754201 1.355537 4.822533C 1.230831 4.890865 1.126624 4.954072 1.042918 5.012155C 0.9592109 5.070237 0.8968579 5.099278 0.8558587 5.099278C 0.8319425 5.099278 0.8105887 5.092445 0.7917974 5.078778C 0.7730061 5.065112 0.7576314 5.042904 0.7456733 5.012155C 0.7337152 4.981405 0.7243195 4.940406 0.7174863 4.889157C 0.7106531 4.837908 0.7072365 4.776409 0.7072365 4.70466C 0.7072365 4.653411 0.7089449 4.608995 0.7123614 4.571413C 0.715778 4.533831 0.7217571 4.501372 0.7302986 4.47404C 0.73884 4.446707 0.749944 4.421082 0.7636104 4.397166C 0.7772768 4.37325 0.8046097 4.343355 0.8456089 4.30748C 0.8866081 4.271606 0.9575026 4.222919 1.058292 4.161421C 1.159082 4.099922 1.285496 4.039278 1.437535 3.979487C 1.589574 3.919696 1.756987 3.869301 1.939775 3.828302C 2.122564 3.787303 2.314747 3.766803 2.516327 3.766803C 2.837487 3.766803 3.118503 3.812073 3.359373 3.902613C 3.600244 3.993154 3.800115 4.117005 3.958987 4.274168C 4.117859 4.431333 4.236586 4.61412 4.315168 4.822533C 4.393749 5.030946 4.433041 5.253025 4.433041 5.48877C 4.433041 5.7006 4.414249 5.911575 4.376667 6.121696C 4.339084 6.331817 4.259648 6.559021 4.138359 6.803308C 4.017069 7.047595 3.841968 7.319215 3.613056 7.618167C 3.384144 7.91712 3.080066 8.261343 2.700824 8.650835L1.650218 9.747564L4.535539 9.747564C 4.562871 9.747564 4.58935 9.755252 4.614974 9.770626C 4.640599 9.786001 4.662807 9.809063 4.681598 9.839812C 4.70039 9.870562 4.714056 9.908998 4.722598 9.955123C 4.731139 10.00125 4.73541 10.05506 4.73541 10.11656zM4.73541 10.11656z" stroke="none" fill="#000000" fill-rule="evenodd" /></g><g transform="matrix(10.4958 0 0 10.5 196.0239 159.1836)"><path id="4" transform="matrix(1 0 0 1 0 0)" d="M4.955781 7.164614C 4.955781 7.673687 4.915636 8.138345 4.835345 8.558587C 4.755055 8.978828 4.621808 9.340135 4.435603 9.642504C 4.249398 9.944873 4.005965 10.17891 3.705304 10.34461C 3.404644 10.51032 3.033942 10.59317 2.5932 10.59317C 2.176375 10.59317 1.825319 10.51886 1.540033 10.37024C 1.254747 10.22162 1.02498 10.00296 0.8507338 9.714252C 0.6764871 9.42555 0.5526353 9.070223 0.4791784 8.648273C 0.4057214 8.226322 0.368993 7.742019 0.368993 7.195363C 0.368993 6.689706 0.4099922 6.225902 0.4919906 5.803952C 0.573989 5.382002 0.7072365 5.019842 0.891733 4.717473C 1.076229 4.415103 1.318808 4.181066 1.619469 4.015361C 1.92013 3.849656 2.289123 3.766803 2.726448 3.766803C 3.14669 3.766803 3.499454 3.841115 3.78474 3.989737C 4.070026 4.138359 4.299793 4.357021 4.47404 4.645724C 4.648286 4.934427 4.772138 5.289753 4.845595 5.711704C 4.919052 6.133654 4.955781 6.617957 4.955781 7.164614zM4.053798 7.226112C 4.053798 6.894702 4.04184 6.597458 4.017923 6.334379C 3.994007 6.071301 3.958987 5.838972 3.912863 5.637393C 3.866739 5.435813 3.806948 5.262421 3.733491 5.117215C 3.660034 4.97201 3.572057 4.852428 3.469559 4.758472C 3.367061 4.664515 3.250042 4.596183 3.118503 4.553476C 2.986964 4.510768 2.839196 4.489415 2.675199 4.489415C 2.384788 4.489415 2.149042 4.557746 1.967963 4.694411C 1.786883 4.831075 1.644239 5.018988 1.540033 5.25815C 1.435827 5.497312 1.364932 5.777473 1.32735 6.098634C 1.289767 6.419795 1.270976 6.764871 1.270976 7.133864C 1.270976 7.629272 1.2966 8.050367 1.347849 8.397153C 1.399098 8.743937 1.480243 9.026661 1.591282 9.245324C 1.702322 9.463986 1.844111 9.622858 2.016649 9.72194C 2.189187 9.821021 2.398454 9.870562 2.644449 9.870562C 2.835779 9.870562 3.004047 9.839812 3.149252 9.778314C 3.294458 9.716815 3.419164 9.628838 3.52337 9.514381C 3.627577 9.399925 3.713846 9.262407 3.782178 9.101827C 3.85051 8.941246 3.905175 8.763583 3.946175 8.568837C 3.987174 8.37409 4.015361 8.163116 4.030735 7.935911C 4.04611 7.708707 4.053798 7.472108 4.053798 7.226112zM4.053798 7.226112z" stroke="none" fill="#000000" fill-rule="evenodd" /></g><g transform="matrix(0.9733654 0 0 0.9924705 -8.1 -1.020264)"><g transform="matrix(1 0 0 1 0 0)"><image x="0" y="0" xlink:href="img_01.png" width="624" height="850" /></g></g></g></g><path id="12" transform="matrix(1 0 0 -1 0 842)" d="M453 541.28C 453 565.7 472.86 585.5 497.28 585.5C 521.7 585.5 541.5 565.7 541.5 541.28C 541.5 516.86 521.7 497 497.28 497C 472.86 497 453 516.86 453 541.28" stroke="none" fill="#FFFFFF" fill-rule="evenodd" /><g transform="matrix(0.24 0 0 0.24 65.52 704.16)"><g transform="matrix(1 0 0 1 0 0)"><image x="0" y="0" xlink:href="img_02.png" width="61" height="61" /></g></g><g transform="matrix(0.24 0 0 0.24 65.52 667.2)"><g transform="matrix(1 0 0 1 0 0)"><image x="0" y="0" xlink:href="img_03.png" width="61" height="61" /></g></g><g transform="matrix(0.24 0 0 0.24 65.52 632.16)"><g transform="matrix(1 0 0 1 0 0)"><image x="0" y="0" xlink:href="img_04.png" width="61" height="61" /></g></g><g transform="matrix(0.24 0 0 0.24 55.92 161.28)"><g transform="matrix(1 0 0 1 0 0)"><image x="0" y="0" xlink:href="img_05.png" width="60" height="61" /></g></g><g transform="matrix(0.24 0 0 0.24 278.16 162.72)"><g transform="matrix(1 0 0 1 0 0)"><image x="0" y="0" xlink:href="img_06.png" width="48" height="48" /></g></g><g transform="matrix(0.24 0 0 0.24 65.04 256.56)"><g transform="matrix(1 0 0 1 0 0)"><image x="0" y="0" xlink:href="img_07.png" width="79" height="80" /></g></g><g transform="matrix(0.24 0 0 0.24 66.72 582.24)"><g transform="matrix(1 0 0 1 0 0)"><image x="0" y="0" xlink:href="img_08.png" width="73" height="73" /></g></g><g transform="matrix(0.24 0 0 0.24 65.28 468.48)"><g transform="matrix(1 0 0 1 0 0)"><image x="0" y="0" xlink:href="img_09.png" width="85" height="84" /></g></g><g transform="matrix(0.24 0 0 0.24 67.44 360.96)"><g transform="matrix(1 0 0 1 0 0)"><image x="0" y="0" xlink:href="img_10.png" width="73" height="74" /></g></g><g transform="matrix(0.3275 0 0 0.3275965 445.2 104.64)"><g transform="matrix(1 0 0 1 0 0)"><image x="0" y="0" xlink:href="img_11.png" width="240" height="337" /></g></g><path id="30" transform="matrix(1 0 0 -1 0 842)" d="M24.9 29.9L574.08 29.9L574.08 829.52L24.9 829.52z" stroke="none" fill="#FFFFFF" fill-rule="nonzero" /><g transform="matrix(0.24 0 0 0.24 438.48 85.91998)"><g transform="matrix(1 0 0 1 0 0)"><image x="0" y="0" xlink:href="img_12.png" width="411" height="575" /></g></g><g transform="matrix(0.24 0 0 0.24 52.56 124.08)"><g transform="matrix(1 0 0 1 0 0)"><image x="0" y="0" xlink:href="img_13.png" width="792" height="592" /></g></g><g transform="matrix(0.24 0 0 0.24 286.08 124.08)"><g transform="matrix(1 0 0 1 0 0)"><image x="0" y="0" xlink:href="img_14.png" width="682" height="465" /></g></g><path id="355" transform="matrix(1 0 0 -1 0 842)" d="M59.28 604.52L538.32 604.52" stroke="#C3D69B" stroke-width="0.75" fill="none" /><path id="356" transform="matrix(1 0 0 -1 0 842)" d="M61.2 488.6L540.24 488.6" stroke="#C3D69B" stroke-width="0.75" fill="none" /><path id="357" transform="matrix(1 0 0 -1 0 842)" d="M57.89999 278L536.94 278" stroke="#C3D69B" stroke-width="0.75" fill="none" /><path id="407" transform="matrix(1 0 0 -1 0 842)" d="M57.9 391.76L536.94 391.76" stroke="#B9CDCE" stroke-width="0.75" fill="none" /><path id="408" transform="matrix(1 0 0 -1 0 842)" d="M59.58 755.72L536.94 759.3199" stroke="#C3D69B" stroke-width="0.75" fill="none" /><path id="413" transform="matrix(1 0 0 -1 0 842)" d="M58.2 144.62L537.24 144.62" stroke="#C3D69B" stroke-width="0.75" fill="none" /><path id="512" transform="matrix(1 0 0 -1 0 842)" d="M316.74 58.64L337.74 58.64L337.74 59.17998L316.74 59.17998z" stroke="none" fill="#0000FF" fill-rule="nonzero" /><g transform="matrix(0.24 0 0 0.24 203.28 295.92)"><g transform="matrix(1 0 0 1 0 0)"><image x="0" y="0" xlink:href="img_15.png" width="104" height="105" /></g></g></g></g></svg>