<svg xmlns="http://www.w3.org/2000/svg" xmlns:xlink="http://www.w3.org/1999/xlink" id="body_1" preserveAspectRatio="xMinYMin meet" viewBox="0 0 793 1123"><defs><clipPath id="1"><path id="" clip-rule="evenodd" transform="matrix(1 0 0 1 0 0)" d="M0 842L0 0L0 0L595.22 0L595.22 0L595.22 842L595.22 842L0 842z" /></clipPath><clipPath id="2"><path id="" clip-rule="evenodd" transform="matrix(1 0 0 1 0 0)" d="M0 0.02001953L595.02 0.02001953L595.02 0.02001953L595.02 841.86L595.02 841.86L0 841.86z" /></clipPath><clipPath id="3"><path id="" clip-rule="evenodd" transform="matrix(1 0 0 1 0 0)" d="M182.46 91.91998L187.5 91.91998L187.5 91.91998L187.5 76.79999L187.5 76.79999L182.46 76.79999z" /></clipPath><clipPath id="4"><path id="" clip-rule="evenodd" transform="matrix(1 0 0 1 0 0)" d="M187.5 91.91998L219.66 91.91998L219.66 91.91998L219.66 76.79999L219.66 76.79999L187.5 76.79999z" /></clipPath><clipPath id="5"><path id="" clip-rule="evenodd" transform="matrix(1 0 0 1 0 0)" d="M219.66 91.91998L227.7 91.91998L227.7 91.91998L227.7 76.79999L227.7 76.79999L219.66 76.79999z" /></clipPath><clipPath id="6"><path id="" clip-rule="evenodd" transform="matrix(1 0 0 1 0 0)" d="M227.7 91.91998L259.92 91.91998L259.92 91.91998L259.92 76.79999L259.92 76.79999L227.7 76.79999z" /></clipPath><clipPath id="7"><path id="" clip-rule="evenodd" transform="matrix(1 0 0 1 0 0)" d="M259.92 91.91998L276 91.91998L276 91.91998L276 76.79999L276 76.79999L259.92 76.79999z" /></clipPath><clipPath id="8"><path id="" clip-rule="evenodd" transform="matrix(1 0 0 1 0 0)" d="M276 91.91998L283.98 91.91998L283.98 91.91998L283.98 76.79999L283.98 76.79999L276 76.79999z" /></clipPath><clipPath id="9"><path id="" clip-rule="evenodd" transform="matrix(1 0 0 1 0 0)" d="M283.98 91.91998L324.3 91.91998L324.3 91.91998L324.3 76.79999L324.3 76.79999L283.98 76.79999z" /></clipPath><clipPath id="10"><path id="" clip-rule="evenodd" transform="matrix(1 0 0 1 0 0)" d="M324.3 91.91998L388.5 91.91998L388.5 91.91998L388.5 76.79999L388.5 76.79999L324.3 76.79999z" /></clipPath><clipPath id="11"><path id="" clip-rule="evenodd" transform="matrix(1 0 0 1 0 0)" d="M535.8 381.66L540.96 381.66L540.96 381.66L540.96 365.64L540.96 365.64L535.8 365.64z" /></clipPath></defs><g transform="matrix(1.333333 0 0 1.333333 0 0)"><g clip-path="url(#1)"><g clip-path="url(#2)"><g transform="matrix(0.9734616 0 0 0.9924705 0 -0.0003051758)"><g transform="matrix(1 0 0 1 0 0)"><image x="0" y="0" xlink:href="img_01.png" width="624" height="850" /></g></g></g><path id="4" transform="matrix(1 0 0 -1 0 842)" d="M23.1 21.38L572.28 21.38L572.28 821L23.1 821z" stroke="none" fill="#FFFFFF" fill-rule="nonzero" /><path id="5" transform="matrix(1 0 0 -1 0 842)" d="M58.14 792.8L537.18 792.8" stroke="#C3D69B" stroke-width="0.75" fill="none" /><path id="6" transform="matrix(1 0 0 -1 0 842)" d="M58.14 51.20001L537.18 51.20001" stroke="#C3D69B" stroke-width="0.75" fill="none" /><g clip-path="url(#3)"></g><g clip-path="url(#4)"></g><g clip-path="url(#5)"></g><g clip-path="url(#6)"></g><g clip-path="url(#7)"></g><g clip-path="url(#8)"></g><g clip-path="url(#9)"></g><g clip-path="url(#10)"></g><g clip-path="url(#11)"></g><g transform="matrix(0.24 0 0 0.24 61.2 99.35999)"><g transform="matrix(1 0 0 1 0 0)"><image x="0" y="0" xlink:href="img_02.png" width="1109" height="593" /></g></g><g transform="matrix(0.24 0 0 0.24 61.2 391.44)"><g transform="matrix(1 0 0 1 0 0)"><image x="0" y="0" xlink:href="img_03.png" width="1071" height="695" /></g></g></g></g></svg>